<svg xmlns="http://www.w3.org/2000/svg" viewBox="0 0 400 400" width="100%" height="100%">
  <defs>
    <filter id="tinShadow" x="-10%" y="-10%" width="125%" height="125%">
      <feDropShadow dx="3" dy="10" stdDeviation="12" flood-opacity="0.2"/>
    </filter>
    <linearGradient id="metalGrad" x1="0" y1="0" x2="1" y2="0">
      <stop offset="0%" stop-color="#C0C5C9"/>
      <stop offset="35%" stop-color="#E5EAEE"/>
      <stop offset="70%" stop-color="#A5ACB2"/>
      <stop offset="100%" stop-color="#7A8288"/>
    </linearGradient>
  </defs>
  <g filter="url(#tinShadow)">
    <!-- Candle Flame & Glow -->
    <ellipse cx="200" cy="115" rx="14" ry="24" fill="#FFEAA7" opacity="0.6"/>
    <path d="M200 95 C206 108, 204 116, 200 125 C196 116, 194 108, 200 95 Z" fill="#FF7675"/>
    <path d="M200 103 C203 111, 202 116, 200 122 C198 116, 197 111, 200 103 Z" fill="#FFF275"/>
    <!-- Wick -->
    <line x1="200" y1="125" x2="200" y2="138" stroke="#222" stroke-width="2.5"/>
    <!-- Inner Wax -->
    <ellipse cx="200" cy="138" rx="70" ry="20" fill="#FCFAF2" stroke="#888" stroke-width="1.5"/>
    <!-- Metal Tin Body -->
    <path d="M130 138 C130 150, 270 150, 270 138 L270 250 C270 265, 130 265, 130 250 Z" fill="url(#metalGrad)" stroke="#555" stroke-width="1.5"/>
    <ellipse cx="200" cy="250" rx="70" ry="15" fill="#8E979E" stroke="#555" stroke-width="1.5"/>
    <!-- Hand-drawn handwritten text on tin -->
    <text x="200" y="180" font-family="'Brush Script MT', cursive, sans-serif" font-style="italic" font-size="16" fill="#444" text-anchor="middle">we're really</text>
    <text x="200" y="205" font-family="'Brush Script MT', cursive, sans-serif" font-style="italic" font-size="18" fill="#444" text-anchor="middle">coffee and</text>
    <text x="200" y="230" font-family="'Brush Script MT', cursive, sans-serif" font-style="italic" font-size="18" fill="#444" text-anchor="middle">silence</text>
  </g>
</svg>