<svg xmlns="http://www.w3.org/2000/svg" viewBox="0 0 400 400" width="100%" height="100%">
  <defs>
    <filter id="pageShadow" x="-10%" y="-10%" width="125%" height="125%">
      <feDropShadow dx="2" dy="8" stdDeviation="8" flood-opacity="0.18"/>
    </filter>
  </defs>
  <g filter="url(#pageShadow)">
    <!-- Book Cover Paper -->
    <rect x="110" y="50" width="180" height="280" rx="2" fill="#F6F1E8" stroke="#D3C9B8" stroke-width="1.5"/>
    <!-- Photo Frame -->
    <rect x="125" y="75" width="150" height="210" fill="#E2D6C3"/>
    <!-- Blonde Woman Illustration -->
    <rect x="135" y="90" width="130" height="180" fill="#7B8B97"/>
    <!-- Blonde hair and shirt -->
    <path d="M175 120 C165 110, 225 110, 215 120 C235 150, 230 190, 225 210 L165 210 C160 190, 155 150, 175 120 Z" fill="#E6D38B"/>
    <path d="M160 210 L230 210 L240 270 L150 270 Z" fill="#D6E5EE"/>
    <!-- Iconic cloud obscuring face -->
    <path d="M190 145 C185 135, 215 135, 210 145 C220 145, 220 160, 210 165 C215 175, 185 175, 190 165 C180 160, 180 145, 190 145 Z" fill="#FFFFFF"/>
    <!-- Editorial bottom title -->
    <text x="200" y="315" font-family="'Courier New', monospace" font-weight="bold" font-size="11" text-anchor="middle" fill="#222">DOT DOT DOT 11</text>
  </g>
</svg>